<svg width="16" height="16" viewBox="0 0 16 16" fill="none" xmlns="http://www.w3.org/2000/svg">
<path d="M12.1046 11.2552L11.3133 12.0378C10.73 12.6103 9.97327 13.3462 9.04271 14.2459C8.46121 14.8082 7.53866 14.8081 6.95725 14.2458L4.62985 11.9819C4.33734 11.6947 4.0925 11.4525 3.89527 11.2552C1.62833 8.98829 1.62833 5.31285 3.89527 3.04591C6.16221 0.778968 9.83765 0.778968 12.1046 3.04591C14.3715 5.31285 14.3715 8.98829 12.1046 11.2552ZM9.66673 7.3337C9.66673 6.41315 8.92048 5.6669 7.99993 5.6669C7.07938 5.6669 6.33313 6.41315 6.33313 7.3337C6.33313 8.25425 7.07938 9.0005 7.99993 9.0005C8.92048 9.0005 9.66673 8.25425 9.66673 7.3337Z" fill="#46C578"/>
</svg>
