<svg width="16" height="17" viewBox="0 0 16 17" fill="none" xmlns="http://www.w3.org/2000/svg">
<path d="M6.6665 2.16602C9.42793 2.16602 11.6665 4.40459 11.6665 7.16602C11.6665 8.30611 11.2849 9.35709 10.6425 10.1982L13.8046 13.3613C14.0649 13.6216 14.0649 14.0437 13.8046 14.3041C13.5643 14.5444 13.1861 14.5629 12.9246 14.3595L12.8618 14.3041L9.69868 11.142C8.85758 11.7844 7.8066 12.166 6.6665 12.166C3.90508 12.166 1.6665 9.92744 1.6665 7.16602C1.6665 4.40459 3.90508 2.16602 6.6665 2.16602ZM6.6665 3.49935C4.64146 3.49935 2.99984 5.14097 2.99984 7.16602C2.99984 9.19106 4.64146 10.8327 6.6665 10.8327C8.69155 10.8327 10.3332 9.19106 10.3332 7.16602C10.3332 5.14097 8.69155 3.49935 6.6665 3.49935Z" fill="#989DB5"/>
</svg>
